<svg width="18" height="17" viewBox="0 0 18 17" fill="none" xmlns="http://www.w3.org/2000/svg">
<path fill-rule="evenodd" clip-rule="evenodd" d="M1.3418 0H5.4417V1.5H1.8418V5.09999H0.341797V1C0.341797 0.447715 0.789512 0 1.3418 0ZM0.341797 11.9V16C0.341797 16.5523 0.789512 17 1.3418 17H5.4417V15.5H1.8418V11.9H0.341797ZM15.8418 11.9V15.5H12.2417V17H16.3418C16.8941 17 17.3418 16.5523 17.3418 16V11.9H15.8418ZM17.3418 5.09999V1C17.3418 0.447715 16.8941 0 16.3418 0H12.2417V1.5H15.8418V5.09999H17.3418Z" fill="white"/>
<rect x="0.341797" y="7.6499" width="17" height="1.5" fill="white"/>
</svg>
